<svg version="1.0" xmlns="http://www.w3.org/2000/svg" width="88" height="88" preserveAspectRatio="xMidYMid meet"><rect id="backgroundrect" width="100%" height="100%" x="0" y="0" fill="none" stroke="none"/>


<g class="currentLayer" style=""><title>Layer 1</title><g transform="translate(0, 88) scale(0.1, -0.1)" fill="#04b804" stroke="none" id="svg_1" class="selected" opacity="1" fill-opacity="1">
<path d="M71 862 c-69 -37 -71 -48 -71 -415 0 -363 3 -380 62 -417 32 -20 46 -20 386 -18 l354 3 34 37 34 38 0 347 c0 331 -1 350 -20 381 -36 59 -54 62 -417 62 -299 0 -331 -2 -362 -18z m537 -236 c2 -16 -2 -32 -10 -37 -7 -5 -68 -9 -135 -9 l-123 0 0 -45 0 -45 94 0 c86 0 96 -2 110 -22 11 -15 12 -26 5 -40 -8 -16 -23 -18 -109 -18 l-100 0 0 -50 0 -49 126 -3 c117 -3 128 -5 141 -25 13 -19 12 -24 -6 -42 -19 -19 -33 -21 -155 -21 -74 0 -146 4 -160 10 l-26 10 0 198 c0 143 3 201 12 210 9 9 57 12 173 10 l160 -3 3 -29z" id="svg_2" opacity="1" fill="#04b804" fill-opacity="1"/>
</g></g></svg>